# xmcd CD database file
#
# Track frame offsets:
#	150
#	11540
#	34260
#	50865
#	64374
#	72504
#	91060
#	114711
#	133791
#	144923
#	163255
#	171636
#	188192
#	200269
#	213631
#
# Disc length: 2972 seconds
#
# Revision: 3
# Processed by: cddbd v1.5.1PL0 Copyright (c) Steve Scherf et al.
# Submitted via: CDex 1.50Beta5
#
DISCID=ed0b9a0f
DTITLE=Various Artist - The coktail Tribute to Nirvana
DYEAR=2001
DGENRE=Jazz
TTITLE0=Karel Marik/Rape Me (Nirvana Cover)
TTITLE1=Gringo Floyd/In Bloom (Nirvana Cover)
TTITLE2=Burton Green/Heart-Shaped Box (Nirvana Cover)
TTITLE3=Karel Marik/Polly (Nirvana Cover)
TTITLE4=Cali Jinetero/About A Girl (Nirvana Cover)
TTITLE5=Gringo Floyd/Come As You Are (Nirvana Cover)
TTITLE6=Karel Marik/Smells Like Teen Spirit (Nirvana Cover)
TTITLE7=Dr. Zaius/All Apologies (Nirvana Cover)
TTITLE8=Karel Marik/Dumb (Nirvana Cover)
TTITLE9=Burton Green/Pennyroyal Tea (Nirvana Cover)
TTITLE10=Cali Jinetero/On A Plain (Nirvana Cover)
TTITLE11=Gringo Floyd/Lithium (Nirvana Cover)
TTITLE12=Karel Marik/Sliver (Nirvana Cover)
TTITLE13=Burton Green/Breed (Nirvana Cover)
TTITLE14=Cali Jinetero/Rape Me (Nirvana Cover)
EXTD=YEAR: 2001
EXTT0=
EXTT1=
EXTT2=
EXTT3=
EXTT4=
EXTT5=
EXTT6=
EXTT7=
EXTT8=
EXTT9=
EXTT10=
EXTT11=
EXTT12=
EXTT13=
EXTT14=
PLAYORDER=
